<?xml version="1.0" standalone="no"?>
<!DOCTYPE svg PUBLIC "-//W3C//DTD SVG 20010904//EN"
 "http://www.w3.org/TR/2001/REC-SVG-20010904/DTD/svg10.dtd">
<svg version="1.0" xmlns="http://www.w3.org/2000/svg"
 width="252.000000pt" height="252.000000pt" viewBox="0 0 252.000000 252.000000"
 preserveAspectRatio="xMidYMid meet">
<metadata>
Created by potrace 1.11, written by Peter Selinger 2001-2013
</metadata>
<g transform="translate(0.000000,252.000000) scale(0.100000,-0.100000)"
fill="#000000" stroke="none">
<path d="M869 2085 c-58 -15 -140 -56 -146 -72 -3 -7 -9 -13 -15 -13 -10 0
-67 -63 -58 -65 3 0 -5 -12 -18 -25 -12 -14 -25 -35 -28 -47 -4 -13 -10 -23
-15 -23 -5 0 -9 -5 -9 -11 0 -6 -17 -41 -39 -77 -33 -57 -65 -115 -115 -207
-6 -11 -15 -23 -19 -26 -5 -3 -9 -10 -9 -15 -1 -17 -21 -54 -30 -54 -4 0 -8
-9 -8 -20 0 -11 -4 -20 -10 -20 -5 0 -10 -5 -10 -10 0 -6 -12 -29 -26 -52 -14
-23 -27 -46 -28 -53 -1 -6 -12 -24 -24 -39 -12 -16 -19 -32 -16 -37 3 -5 0 -9
-6 -9 -6 0 -8 -4 -5 -10 3 -5 2 -10 -4 -10 -5 0 -23 -26 -39 -57 -16 -32 -39
-75 -50 -95 -30 -53 -49 -135 -47 -204 1 -63 32 -174 47 -174 5 0 6 -5 3 -10
-3 -6 1 -13 9 -16 9 -3 14 -10 11 -14 -14 -22 142 -157 189 -164 6 -1 17 -5
23 -9 32 -20 220 -27 808 -30 454 -2 553 4 668 38 363 105 605 426 605 800 0
376 -252 703 -623 806 -74 21 -106 23 -430 27 -192 2 -381 5 -420 7 -38 1 -91
-3 -116 -10z"/>
</g>
</svg>
